<svg width="161" height="40" viewBox="0 0 161 40" fill="none" xmlns="http://www.w3.org/2000/svg">
<path d="M56.5229 23.1779C56.5229 27.5338 52.9997 30.5762 48.6673 30.5762H36.5637V6.72876H47.639C51.6595 6.72876 54.9214 9.46605 54.9214 13.5084C54.9214 14.8983 54.5421 16.1694 53.851 17.2796C55.4861 18.7457 56.5229 20.8305 56.5229 23.1779ZM42.0424 15.822H47.639C48.5999 15.822 49.4006 15.0169 49.4006 14.0508C49.4006 13.0508 48.5999 12.2372 47.639 12.2372H42.0424V15.822ZM51.0105 22.6779C51.0105 21.3644 49.94 20.3305 48.6757 20.3305H42.0508V25.0677H48.6757C49.9316 25.0677 51.0105 23.9915 51.0105 22.6779Z" fill="white"/>
<path d="M58.8577 6.72876H64.3363V30.5338H58.8577V6.72876Z" fill="white"/>
<path d="M85.0624 23.1779C85.0624 28.1101 80.8902 30.8813 75.8667 30.8813C72.1496 30.8813 68.5843 29.3813 66.7131 26.0254L71.2309 22.8644C71.9221 24.1356 73.6078 25.3644 75.8245 25.3644C77.131 25.3644 79.5416 25.1695 79.5416 23.322C79.5416 21.3983 76.5157 21.2033 75.1755 20.9322C70.152 19.8135 67.3959 17.2711 67.3959 13.7288C67.3959 9.14403 72.0316 6.40674 76.2881 6.40674C79.1623 6.40674 82.8794 7.63555 84.523 10.0254L80.1148 13.4152C79.845 12.9915 78.1256 11.9152 76.2038 11.9152C75.3188 11.9152 72.9082 12.1864 72.9082 13.4576C72.9082 14.3813 74.2147 15.1525 76.0858 15.4576C81.9269 16.4745 85.0624 18.9067 85.0624 23.1779Z" fill="white"/>
<path d="M87.9366 6.72876H103.075V12.2372H93.4574V15.8983H101.659V21.4067H93.4574V25.0254H102.923V30.5762H87.9451V6.72876H87.9366Z" fill="white"/>
<path d="M121.272 23.6017L126.135 26.6441C123.834 29.3814 120.539 30.9576 117.016 30.9576C110.391 30.9576 105.022 25.4068 105.022 18.6271C105.022 11.8475 110.382 6.33899 117.016 6.33899C120.353 6.33899 123.531 7.76272 125.79 10.2288L121.12 13.5C120.16 12.4237 118.71 11.8475 117.024 11.8475C113.577 11.8475 110.778 14.8898 110.778 18.6271C110.778 22.3644 113.577 25.4068 117.024 25.4068C118.777 25.4153 120.16 24.8729 121.272 23.6017Z" fill="white"/>
<path d="M151 18.6356C151 25.3729 145.673 30.8474 139.124 30.8474C132.609 30.8474 127.282 25.3813 127.282 18.6356C127.282 11.9322 132.609 6.46607 139.124 6.46607C145.673 6.4576 151 11.9322 151 18.6356ZM145.294 18.6356C145.294 14.9745 142.538 11.9745 139.124 11.9745C135.753 11.9745 132.996 14.983 132.996 18.6356C132.996 22.3305 135.753 25.339 139.124 25.339C142.529 25.339 145.294 22.3305 145.294 18.6356Z" fill="white"/>
<path d="M68.5758 38.8644H67.8846V36.9492H65.9376V38.8644H65.2465V34.6187H65.9376V36.3559H67.8846V34.6187H68.5758V38.8644Z" fill="white"/>
<path d="M72.0737 38.8644H69.6884V34.6186H72.0737V35.2034H70.3795V36.3559H71.9725V36.9322H70.3795V38.2627H72.0737V38.8644ZM71.5342 34.2796C71.2982 34.1356 71.0791 33.9661 70.8768 33.7542C70.6829 33.9576 70.4638 34.1271 70.2278 34.2796H69.7726V34.2034C70.1435 33.822 70.3879 33.5254 70.5059 33.322H71.2561C71.3741 33.5339 71.627 33.8305 71.9978 34.2034V34.2796H71.5342ZM70.4891 39.6271C70.4891 39.5085 70.5228 39.4152 70.5902 39.3474C70.6577 39.2796 70.7504 39.2458 70.8768 39.2458C71.0032 39.2458 71.0959 39.2796 71.155 39.3474C71.2224 39.4152 71.2477 39.5085 71.2477 39.6271C71.2477 39.7373 71.214 39.8305 71.1465 39.8983C71.0791 39.9661 70.9864 40 70.8684 40C70.7419 40 70.6492 39.9661 70.5818 39.8983C70.5228 39.8305 70.4891 39.7373 70.4891 39.6271Z" fill="white"/>
<path d="M76.9539 37.7118C76.9539 38.0932 76.819 38.3813 76.5493 38.6016C76.2796 38.8135 75.9003 38.9237 75.4283 38.9237C74.9563 38.9237 74.5601 38.8474 74.2567 38.7033V38.0508C74.4506 38.144 74.6529 38.2118 74.872 38.2626C75.0912 38.3135 75.2934 38.3389 75.4789 38.3389C75.7486 38.3389 75.9509 38.2881 76.0857 38.1779C76.2122 38.0762 76.2796 37.9321 76.2796 37.7542C76.2796 37.5932 76.2206 37.4576 76.1026 37.3474C75.9846 37.2372 75.7402 37.1101 75.3609 36.9576C74.9732 36.805 74.7034 36.6186 74.5433 36.4237C74.3831 36.2203 74.3073 35.983 74.3073 35.6948C74.3073 35.3389 74.4337 35.0593 74.6866 34.8559C74.9394 34.6525 75.2682 34.5508 75.6896 34.5508C76.0942 34.5508 76.4988 34.6355 76.8949 34.822L76.6758 35.3898C76.3049 35.2287 75.9677 35.1525 75.6727 35.1525C75.4536 35.1525 75.2766 35.2033 75.167 35.2965C75.049 35.3982 74.99 35.5254 74.99 35.6864C74.99 35.7965 75.0153 35.8898 75.0574 35.966C75.108 36.0423 75.1839 36.1186 75.285 36.1864C75.3862 36.2542 75.58 36.3474 75.8582 36.466C76.17 36.5932 76.3976 36.7203 76.5409 36.8304C76.6842 36.9406 76.7938 37.0677 76.8612 37.2118C76.9202 37.3559 76.9539 37.5169 76.9539 37.7118Z" fill="white"/>
<path d="M77.7715 38.8644V34.6187H78.4626V38.8644H77.7715Z" fill="white"/>
<path d="M83.09 38.8643H82.2471L80.1736 35.483H80.1483L80.1652 35.6694C80.1905 36.0254 80.2073 36.3559 80.2073 36.6525V38.8559H79.5836V34.6101H80.4181L82.4831 37.9745H82.4999C82.4999 37.9321 82.4915 37.7711 82.4747 37.4915C82.4662 37.2118 82.4578 36.9915 82.4578 36.8389V34.6186H83.09V38.8643Z" fill="white"/>
<path d="M87.532 38.8644H86.8408V36.9492H84.8938V38.8644H84.2026V34.6187H84.8938V36.3559H86.8408V34.6187H87.532V38.8644Z" fill="white"/>
<path d="M91.6283 38.8644H90.9371V35.2203H89.6981V34.6271H92.8673V35.2203H91.6283V38.8644Z" fill="white"/>
<path d="M96.8456 38.8644H96.1544V36.9492H94.2074V38.8644H93.5162V34.6187H94.2074V36.3559H96.1544V34.6187H96.8456V38.8644Z" fill="white"/>
<path d="M100.571 38.8643L100.15 37.6864H98.5397L98.1267 38.8643H97.4019L98.978 34.6016H99.7282L101.304 38.8643H100.571ZM99.9726 37.0847L99.5765 35.9321C99.5512 35.8559 99.509 35.7372 99.4585 35.5677C99.4079 35.3982 99.3742 35.2796 99.3489 35.2033C99.2983 35.4406 99.2225 35.7033 99.1213 35.983L98.742 37.0847H99.9726ZM98.9359 34.2796V34.2033C99.0455 34.0677 99.155 33.9152 99.273 33.7542C99.391 33.5932 99.4837 33.4491 99.5512 33.3304H100.335V33.3898C100.234 33.5084 100.082 33.661 99.8883 33.8474C99.6945 34.0338 99.5175 34.1779 99.3826 34.2796H98.9359Z" fill="white"/>
<path d="M101.861 38.8644V34.6187H102.552V38.8644H101.861Z" fill="white"/>
<path d="M108.637 36.7033C108.637 37.4067 108.444 37.9406 108.056 38.3135C107.668 38.6864 107.112 38.8728 106.387 38.8728H105.207V34.6271H106.513C107.188 34.6271 107.71 34.805 108.081 35.1694C108.444 35.5339 108.637 36.0423 108.637 36.7033ZM107.904 36.7203C107.904 35.7033 107.432 35.1949 106.488 35.1949H105.89V38.2711H106.378C107.398 38.2796 107.904 37.7627 107.904 36.7203Z" fill="white"/>
<path d="M113.29 36.7372C113.29 37.4237 113.121 37.9661 112.776 38.3474C112.43 38.7288 111.95 38.9237 111.318 38.9237C110.677 38.9237 110.188 38.7372 109.851 38.3559C109.505 37.9745 109.337 37.4322 109.337 36.7372C109.337 36.0338 109.505 35.5 109.851 35.1271C110.197 34.7542 110.686 34.5677 111.318 34.5677C111.941 34.5677 112.43 34.7627 112.776 35.1355C113.113 35.5084 113.29 36.0423 113.29 36.7372ZM110.062 36.7372C110.062 37.2627 110.163 37.6525 110.374 37.9237C110.584 38.1949 110.896 38.3305 111.309 38.3305C111.722 38.3305 112.026 38.1949 112.236 37.9322C112.447 37.6694 112.548 37.2711 112.548 36.7372C112.548 36.2203 112.447 35.822 112.236 35.5508C112.026 35.2796 111.722 35.144 111.309 35.144C110.896 35.144 110.584 35.2796 110.374 35.5508C110.171 35.822 110.062 36.2118 110.062 36.7372Z" fill="white"/>
<path d="M116.813 38.8644L116.392 37.6864H114.782L114.369 38.8644H113.644L115.22 34.6017H115.97L117.547 38.8644H116.813ZM116.206 37.0847L115.81 35.9322C115.785 35.8559 115.743 35.7373 115.692 35.5678C115.642 35.3983 115.608 35.2796 115.583 35.2034C115.532 35.4407 115.456 35.7034 115.355 35.983L114.976 37.0847H116.206Z" fill="white"/>
<path d="M121.618 38.8643H120.775L118.701 35.483H118.676L118.693 35.6694C118.718 36.0254 118.735 36.3559 118.735 36.6525V38.8559H118.111V34.6101H118.946L121.019 37.9745H121.036C121.036 37.9321 121.028 37.7711 121.011 37.4915C121.002 37.2118 120.994 36.9915 120.994 36.8389V34.6186H121.626V38.8643H121.618Z" fill="white"/>
<path d="M126.059 38.8644H125.368V36.9492H123.421V38.8644H122.73V34.6187H123.421V36.3559H125.368V34.6187H126.059V38.8644Z" fill="white"/>
<path d="M132.221 38.8643H131.378L129.304 35.483H129.279L129.296 35.6694C129.321 36.0254 129.338 36.3559 129.338 36.6525V38.8559H128.714V34.6101H129.549L131.622 37.9745H131.639C131.639 37.9321 131.631 37.7711 131.614 37.4915C131.606 37.2118 131.597 36.9915 131.597 36.8389V34.6186H132.229V38.8643H132.221Z" fill="white"/>
<path d="M135.053 36.5593H136.604V38.6864C136.351 38.7712 136.106 38.8305 135.87 38.8644C135.634 38.8983 135.382 38.9153 135.112 38.9153C134.471 38.9153 133.982 38.7288 133.637 38.3475C133.291 37.9661 133.114 37.4322 133.114 36.7373C133.114 36.0509 133.308 35.517 133.704 35.1356C134.092 34.7458 134.631 34.5593 135.314 34.5593C135.752 34.5593 136.174 34.6441 136.57 34.8136L136.326 35.3898C135.98 35.2288 135.643 35.1525 135.297 35.1525C134.851 35.1525 134.488 35.2966 134.227 35.5763C133.966 35.8644 133.831 36.2458 133.831 36.7458C133.831 37.2627 133.949 37.661 134.185 37.9322C134.421 38.2034 134.758 38.339 135.205 38.339C135.424 38.339 135.668 38.3136 135.921 38.2542V37.161H135.044V36.5593H135.053Z" fill="white"/>
<path d="M140.945 38.8644H140.253V36.9492H138.306V38.8644H137.615V34.6187H138.306V36.3559H140.253V34.6187H140.945V38.8644Z" fill="white"/>
<path d="M142.057 38.8644V34.6187H142.748V38.8644H142.057Z" fill="white"/>
<path d="M146.246 38.8644H143.861V34.6186H146.246V35.2034H144.552V36.3559H146.145V36.9322H144.552V38.2627H146.246V38.8644ZM145.707 34.2796C145.471 34.1356 145.252 33.9661 145.049 33.7542C144.847 33.9576 144.636 34.1271 144.4 34.2796H143.945V34.2034C144.316 33.822 144.56 33.5254 144.678 33.322H145.429C145.547 33.5339 145.799 33.8305 146.17 34.2034V34.2796H145.707ZM144.662 39.6271C144.662 39.5085 144.695 39.4152 144.763 39.3474C144.83 39.2796 144.923 39.2458 145.049 39.2458C145.176 39.2458 145.268 39.2796 145.327 39.3474C145.395 39.4152 145.429 39.5085 145.429 39.6271C145.429 39.7373 145.395 39.8305 145.327 39.8983C145.26 39.9661 145.167 40 145.049 40C144.923 40 144.83 39.9661 144.763 39.8983C144.695 39.8305 144.662 39.7373 144.662 39.6271Z" fill="white"/>
<path d="M149.955 35.9068C149.955 36.3475 149.812 36.6865 149.525 36.9237C149.238 37.161 148.825 37.2797 148.294 37.2797H147.856V38.8644H147.165V34.6187H148.379C148.91 34.6187 149.297 34.7288 149.567 34.9407C149.82 35.161 149.955 35.4831 149.955 35.9068ZM147.848 36.6949H148.21C148.564 36.6949 148.825 36.6356 148.985 36.5085C149.154 36.3814 149.23 36.1949 149.23 35.9322C149.23 35.6865 149.154 35.5085 149.011 35.3898C148.867 35.2712 148.632 35.2119 148.32 35.2119H147.839V36.6949H147.848Z" fill="white"/>
<path d="M15.9555 0L0 9.23729V27.5339L15.9555 36.9153L31.911 27.6525V9.23729L15.9555 0ZM26.837 7.09322L30.6552 9.27966L26.837 11.6441V7.09322ZM21.5522 4.1017L25.3704 6.28814L21.5522 8.65254V4.1017ZM16.3854 1.0339L20.2036 3.22034L16.3854 5.58475V1.0339ZM20.6334 4.0339V9.16949L10.8899 14.8983L6.54066 12.3729L20.6334 4.0339ZM15.5004 1.0339V6.16949L5.7568 11.8898L1.41602 9.36441L15.5004 1.0339ZM0.885013 10.1525L4.70321 12.339L0.885013 14.7034V10.1525ZM0.885013 16.1864L4.70321 18.3729L0.885013 20.7373V16.1864ZM0.885013 22.2203L4.70321 24.4068L0.885013 26.7712V22.2203ZM15.3992 35.7373L1.21373 27.5678L5.64722 25.0169L15.4245 30.6864L15.3992 35.7373ZM15.5425 29.7034L1.35702 21.5339L5.79051 18.983L15.5678 24.6525L15.5425 29.7034ZM15.5425 23.5593L1.35702 15.3983L5.79051 12.8475L15.5678 18.5169L15.5425 23.5593ZM11.7665 15.3305L25.8592 7V12.1356L16.1157 17.8644L11.7665 15.3305ZM16.3854 35.7373V31.1949L20.2036 33.3814L16.3854 35.7373ZM16.3854 30.1356L16.3601 18.7881L20.7177 16.2797L20.802 32.7119L16.3854 30.1356ZM21.5522 32.7542V28.2119L25.3704 30.3983L21.5522 32.7542ZM21.5775 27.1186L21.5522 15.7712L25.9098 13.2627L25.9941 29.6949L21.5775 27.1186ZM26.837 29.7034V25.161L30.6552 27.3475L26.837 29.7034ZM26.8622 24.1017L26.837 12.7542L31.1862 10.2458L31.2789 26.678L26.8622 24.1017Z" fill="white"/>
</svg>
